<svg width="140" height="58" viewBox="0 0 140 58" fill="none" xmlns="http://www.w3.org/2000/svg">
<path d="M0.664001 3.8H6.288V52.136H36.08V57H0.664001V3.8ZM44.2779 17.024H49.6739V57H44.2779V17.024ZM47.0139 8.284C45.8992 8.284 44.9619 7.904 44.2019 7.144C43.4419 6.384 43.0619 5.472 43.0619 4.408C43.0619 3.39467 43.4419 2.508 44.2019 1.748C44.9619 0.987996 45.8992 0.607997 47.0139 0.607997C48.1286 0.607997 49.0659 0.987996 49.8259 1.748C50.5859 2.45733 50.9659 3.31866 50.9659 4.332C50.9659 5.44667 50.5859 6.384 49.8259 7.144C49.0659 7.904 48.1286 8.284 47.0139 8.284ZM98.2801 17.024L80.4961 57H74.9481L57.2401 17.024H62.8641L77.8361 51.072L92.9601 17.024H98.2801ZM139.574 38.684H106.134C106.438 42.8387 108.034 46.208 110.922 48.792C113.81 51.3253 117.458 52.592 121.866 52.592C124.349 52.592 126.629 52.1613 128.706 51.3C130.784 50.388 132.582 49.0707 134.102 47.348L137.142 50.844C135.369 52.972 133.14 54.5933 130.454 55.708C127.82 56.8227 124.906 57.38 121.714 57.38C117.61 57.38 113.962 56.5187 110.77 54.796C107.629 53.0227 105.172 50.5907 103.398 47.5C101.625 44.4093 100.738 40.9133 100.738 37.012C100.738 33.1107 101.574 29.6147 103.246 26.524C104.969 23.4333 107.3 21.0267 110.238 19.304C113.228 17.5813 116.572 16.72 120.27 16.72C123.969 16.72 127.288 17.5813 130.226 19.304C133.165 21.0267 135.47 23.4333 137.142 26.524C138.814 29.564 139.65 33.06 139.65 37.012L139.574 38.684ZM120.27 21.356C116.42 21.356 113.177 22.5973 110.542 25.08C107.958 27.512 106.489 30.704 106.134 34.656H134.482C134.128 30.704 132.633 27.512 129.998 25.08C127.414 22.5973 124.172 21.356 120.27 21.356Z" fill="#001D23" fill-opacity="0.12"/>
</svg>
