<svg width="319" height="54" viewBox="0 0 319 54" fill="none" xmlns="http://www.w3.org/2000/svg">
<path d="M39.263 39.723H11.573L5.609 53H0.142L22.862 3.3H28.045L50.765 53H45.227L39.263 39.723ZM37.346 35.463L25.418 8.767L13.49 35.463H37.346ZM77.1626 15.37C80.6652 15.37 83.8366 16.1747 86.6766 17.784C89.5166 19.346 91.7412 21.5707 93.3506 24.458C94.9599 27.3453 95.7646 30.635 95.7646 34.327C95.7646 38.019 94.9599 41.3087 93.3506 44.196C91.7412 47.0833 89.5166 49.3317 86.6766 50.941C83.8366 52.5503 80.6652 53.355 77.1626 53.355C74.0386 53.355 71.2222 52.6923 68.7136 51.367C66.2522 50.0417 64.2642 48.1247 62.7496 45.616V53H57.9216V0.317997H62.9626V22.754C64.5246 20.34 66.5126 18.5177 68.9266 17.287C71.3879 16.009 74.1332 15.37 77.1626 15.37ZM76.8076 48.882C79.4109 48.882 81.7776 48.2903 83.9076 47.107C86.0376 45.8763 87.6942 44.1487 88.8776 41.924C90.1082 39.6993 90.7236 37.167 90.7236 34.327C90.7236 31.487 90.1082 28.9547 88.8776 26.73C87.6942 24.5053 86.0376 22.8013 83.9076 21.618C81.7776 20.3873 79.4109 19.772 76.8076 19.772C74.1569 19.772 71.7666 20.3873 69.6366 21.618C67.5539 22.8013 65.8972 24.5053 64.6666 26.73C63.4832 28.9547 62.8916 31.487 62.8916 34.327C62.8916 37.167 63.4832 39.6993 64.6666 41.924C65.8972 44.1487 67.5539 45.8763 69.6366 47.107C71.7666 48.2903 74.1569 48.882 76.8076 48.882ZM121.306 53.355C117.708 53.355 114.466 52.5503 111.579 50.941C108.691 49.2843 106.419 47.0123 104.763 44.125C103.106 41.2377 102.278 37.9717 102.278 34.327C102.278 30.6823 103.106 27.4163 104.763 24.529C106.419 21.6417 108.691 19.3933 111.579 17.784C114.466 16.1747 117.708 15.37 121.306 15.37C124.903 15.37 128.145 16.1747 131.033 17.784C133.92 19.3933 136.168 21.6417 137.778 24.529C139.434 27.4163 140.263 30.6823 140.263 34.327C140.263 37.9717 139.434 41.2377 137.778 44.125C136.168 47.0123 133.92 49.2843 131.033 50.941C128.145 52.5503 124.903 53.355 121.306 53.355ZM121.306 48.882C123.956 48.882 126.323 48.2903 128.406 47.107C130.536 45.8763 132.192 44.1487 133.376 41.924C134.559 39.6993 135.151 37.167 135.151 34.327C135.151 31.487 134.559 28.9547 133.376 26.73C132.192 24.5053 130.536 22.8013 128.406 21.618C126.323 20.3873 123.956 19.772 121.306 19.772C118.655 19.772 116.265 20.3873 114.135 21.618C112.052 22.8013 110.395 24.5053 109.165 26.73C107.981 28.9547 107.39 31.487 107.39 34.327C107.39 37.167 107.981 39.6993 109.165 41.924C110.395 44.1487 112.052 45.8763 114.135 47.107C116.265 48.2903 118.655 48.882 121.306 48.882ZM184.208 15.654V53H179.38V46.184C178.055 48.456 176.233 50.231 173.913 51.509C171.594 52.7397 168.943 53.355 165.961 53.355C161.086 53.355 157.228 52.006 154.388 49.308C151.596 46.5627 150.199 42.563 150.199 37.309V15.654H155.24V36.812C155.24 40.7407 156.211 43.7227 158.151 45.758C160.092 47.7933 162.861 48.811 166.458 48.811C170.387 48.811 173.487 47.6277 175.759 45.261C178.031 42.847 179.167 39.51 179.167 35.25V15.654H184.208ZM217.994 50.728C217.047 51.58 215.864 52.2427 214.444 52.716C213.071 53.142 211.628 53.355 210.113 53.355C206.61 53.355 203.912 52.4083 202.019 50.515C200.126 48.6217 199.179 45.9473 199.179 42.492V19.914H192.505V15.654H199.179V7.489H204.22V15.654H215.58V19.914H204.22V42.208C204.22 44.4327 204.764 46.1367 205.853 47.32C206.989 48.456 208.598 49.024 210.681 49.024C211.722 49.024 212.716 48.8583 213.663 48.527C214.657 48.1957 215.509 47.7223 216.219 47.107L217.994 50.728ZM279.407 15.654V53H274.579V46.184C273.253 48.456 271.431 50.231 269.112 51.509C266.792 52.7397 264.142 53.355 261.16 53.355C256.284 53.355 252.427 52.006 249.587 49.308C246.794 46.5627 245.398 42.563 245.398 37.309V15.654H250.439V36.812C250.439 40.7407 251.409 43.7227 253.35 45.758C255.29 47.7933 258.059 48.811 261.657 48.811C265.585 48.811 268.686 47.6277 270.958 45.261C273.23 42.847 274.366 39.51 274.366 35.25V15.654H279.407ZM303.536 53.355C300.507 53.355 297.596 52.929 294.803 52.077C292.058 51.1777 289.904 50.0653 288.342 48.74L290.614 44.764C292.176 45.9947 294.14 47.0123 296.507 47.817C298.874 48.5743 301.335 48.953 303.891 48.953C307.299 48.953 309.808 48.4323 311.417 47.391C313.074 46.3023 313.902 44.7877 313.902 42.847C313.902 41.4743 313.452 40.4093 312.553 39.652C311.654 38.8473 310.518 38.2557 309.145 37.877C307.772 37.451 305.95 37.0487 303.678 36.67C300.649 36.102 298.211 35.534 296.365 34.966C294.519 34.3507 292.933 33.333 291.608 31.913C290.33 30.493 289.691 28.5287 289.691 26.02C289.691 22.896 290.993 20.34 293.596 18.352C296.199 16.364 299.82 15.37 304.459 15.37C306.873 15.37 309.287 15.7013 311.701 16.364C314.115 16.9793 316.103 17.8077 317.665 18.849L315.464 22.896C312.387 20.766 308.719 19.701 304.459 19.701C301.24 19.701 298.803 20.269 297.146 21.405C295.537 22.541 294.732 24.032 294.732 25.878C294.732 27.298 295.182 28.434 296.081 29.286C297.028 30.138 298.187 30.777 299.56 31.203C300.933 31.5817 302.826 31.984 305.24 32.41C308.222 32.978 310.612 33.546 312.411 34.114C314.21 34.682 315.748 35.6523 317.026 37.025C318.304 38.3977 318.943 40.291 318.943 42.705C318.943 45.971 317.57 48.5743 314.825 50.515C312.127 52.4083 308.364 53.355 303.536 53.355Z" fill="#001D23" fill-opacity="0.12"/>
</svg>
