<svg width="100" height="100" viewBox="0 0 100 100" fill="none" xmlns="http://www.w3.org/2000/svg">
<path d="M50 99.2701C77.6142 99.2701 100 77.0477 100 49.635C100 22.2224 77.6142 0 50 0C22.3858 0 0 22.2224 0 49.635C0 77.0477 22.3858 99.2701 50 99.2701Z" fill="#5E5E5E"/>
<path d="M71.8804 69.4124L54.9732 28.8345C54.0195 26.7365 52.602 25.7131 50.7335 25.7131H49.2386C47.3701 25.7131 45.9525 26.7365 44.9989 28.8345L37.6407 46.5137H32.0737C30.4113 46.5265 29.0582 47.857 29.0453 49.52V49.5584C29.0582 51.2086 30.4113 52.5518 32.0737 52.5646H35.0634L28.0402 69.4124C27.9113 69.7834 27.834 70.1671 27.834 70.5637C27.834 71.5103 28.1304 72.2523 28.6587 72.828C29.1871 73.4036 29.9474 73.6851 30.901 73.6851C31.5324 73.6723 32.1381 73.4804 32.6407 73.1094C33.1819 72.7384 33.5556 72.2011 33.852 71.5871L41.584 52.5518H46.9448C48.6072 52.539 49.9603 51.2086 49.9732 49.5456V49.4688C49.9603 47.8186 48.6072 46.4754 46.9448 46.4626H44.084L49.986 31.8663L66.0685 71.5743C66.3649 72.1884 66.7386 72.7256 67.2798 73.0966C67.7824 73.4676 68.401 73.6595 69.0195 73.6723C69.9731 73.6723 70.7206 73.3909 71.2618 72.8152C71.803 72.2395 72.0866 71.4976 72.0866 70.5509C72.0994 70.1671 72.035 69.7706 71.8804 69.4124Z" fill="#FCFCFC"/>
</svg>
