<svg width="101" height="99" viewBox="0 0 101 99" fill="none" xmlns="http://www.w3.org/2000/svg">
<path d="M50.1367 35.3665L63.2324 48.4622L50.1367 61.558L37.041 48.4622L50.1367 35.3665Z" fill="#5E5E5E"/>
<path d="M13.0957 35.5449L26.1914 48.6406L13.0957 61.7364L-1.54698e-05 48.6406L13.0957 35.5449Z" fill="#5E5E5E"/>
<path d="M49.3896 0L62.4854 13.0957L32.3652 43.2159L19.2695 30.1202L49.3896 0Z" fill="#5E5E5E"/>
<path d="M66.8057 43.3939L79.9014 30.2981L49.7812 0.177977L36.6855 13.2737L66.8057 43.3939Z" fill="#5E5E5E"/>
<path d="M49.7803 98.954L36.6846 85.8583L66.8047 55.7381L79.9004 68.8338L49.7803 98.954Z" fill="#5E5E5E"/>
<path d="M32.3633 55.5601L19.2676 68.6558L49.3877 98.776L62.4834 85.6803L32.3633 55.5601Z" fill="#5E5E5E"/>
<path d="M87.1777 35.5449L100.273 48.6406L87.1777 61.7364L74.082 48.6406L87.1777 35.5449Z" fill="#5E5E5E"/>
</svg>
