<svg width="100" height="100" viewBox="0 0 100 100" fill="none" xmlns="http://www.w3.org/2000/svg">
<circle cx="50" cy="50" r="50" fill="#5E5E5E"/>
<path d="M49.1049 22C37.4671 22.0438 28.0436 31.5188 28 43.2203C28 45.5641 28.3753 47.8926 29.1122 50.1162C29.6615 51.6271 31.2877 52.4446 32.8194 51.98C34.3059 51.412 35.0951 49.7782 34.6201 48.2524C33.9933 46.5232 33.7142 44.686 33.7992 42.8475C34.0433 34.575 40.7818 27.9952 49.0129 27.992C57.244 27.9888 63.9876 34.5634 64.238 42.8357C64.4885 51.108 58.1552 58.0828 49.9391 58.583C49.9391 58.583 46.9865 58.7694 45.5036 58.9558C44.9598 59.0329 44.4206 59.1396 43.8883 59.2753C43.8092 59.3349 43.6986 59.327 43.6287 59.2567C43.5588 59.1864 43.5509 59.0752 43.6102 58.9957L44.0736 56.4796L46.8541 43.8193C47.1868 42.2496 46.1909 40.7059 44.6297 40.3714C43.0685 40.0368 41.5332 41.0382 41.2005 42.6079C41.2005 42.6079 34.5804 73.5197 34.5804 73.7993C34.3962 74.5531 34.5288 75.3499 34.9472 76.0022C35.3655 76.6546 36.0326 77.1049 36.7915 77.2473C37.5428 77.4282 38.3351 77.2914 38.9833 76.8687C39.6315 76.4459 40.0788 75.7743 40.2207 75.0107C40.3134 74.638 41.1476 70.5377 41.1476 70.5377C41.7769 67.4465 44.2551 65.0769 47.3572 64.6003C47.9928 64.5071 50.6805 64.3207 50.6805 64.3207C61.8332 63.2843 70.2353 53.664 69.8163 42.4105C69.3974 31.157 60.3034 22.1952 49.1049 22Z" fill="#FCFCFC"/>
<path d="M62.4169 70.652C61.5368 70.4569 60.6218 70.6535 59.8746 71.1984C59.1274 71.7434 58.6095 72.5916 58.4357 73.5554C58.2465 74.5194 58.4218 75.526 58.9217 76.3464C59.4217 77.1667 60.2037 77.7309 61.0898 77.9106C61.9705 78.1297 62.8948 77.9427 63.6455 77.3934C64.3962 76.8442 64.9072 75.9812 65.0584 75.0072C65.3676 73.0201 64.2107 71.1128 62.4169 70.652Z" fill="#E7137D"/>
</svg>
