<svg width="100" height="100" viewBox="0 0 100 100" fill="none" xmlns="http://www.w3.org/2000/svg">
<path d="M67.5066 37.0133C66.8476 36.6401 66.1052 36.4442 65.3503 36.4442C64.5953 36.4442 63.8529 36.6401 63.1939 37.0133L53.2993 42.8274L46.5765 46.6192L36.6825 52.4333C36.0233 52.8061 35.281 53.0019 34.5261 53.0019C33.7712 53.0019 33.0289 52.8061 32.3697 52.4333L24.5048 47.8831C23.8649 47.5114 23.3304 46.9787 22.9529 46.3367C22.5754 45.6946 22.3677 44.9648 22.3498 44.2177V35.2438C22.341 34.491 22.5375 33.7504 22.9178 33.1036C23.298 32.4568 23.8472 31.929 24.5048 31.5783L32.2427 27.1546C32.9018 26.7817 33.6442 26.586 34.3991 26.586C35.154 26.586 35.8963 26.7817 36.5554 27.1546L44.2934 31.5783C44.9333 31.9501 45.4678 32.4827 45.8453 33.1248C46.2227 33.7669 46.4304 34.4967 46.4483 35.2438V41.0579L53.1712 37.1397V31.3256C53.18 30.5728 52.9835 29.8322 52.6032 29.1854C52.223 28.5386 51.6738 28.0108 51.0162 27.6601L36.6825 19.3187C36.0233 18.9459 35.281 18.7502 34.5261 18.7502C33.7712 18.7502 33.0289 18.9459 32.3697 19.3187L17.7802 27.6607C17.1228 28.0113 16.5736 28.5391 16.1934 29.1857C15.8131 29.8324 15.6165 30.5729 15.6253 31.3256V48.1359C15.6164 48.8887 15.813 49.6293 16.1932 50.2761C16.5735 50.9229 17.1227 51.4507 17.7802 51.8013L32.368 60.1433C33.0272 60.5161 33.7695 60.7119 34.5244 60.7119C35.2793 60.7119 36.0216 60.5161 36.6808 60.1433L46.5748 54.4556L53.2976 50.5374L63.1922 44.8497C63.8512 44.4765 64.5936 44.2806 65.3486 44.2806C66.1035 44.2806 66.8459 44.4765 67.5049 44.8497L75.2429 49.2734C75.8827 49.6453 76.4172 50.1779 76.7947 50.8199C77.1721 51.462 77.3799 52.1918 77.3978 52.9389V61.9128C77.4067 62.6656 77.2101 63.4062 76.8299 64.053C76.4496 64.6998 75.9004 65.2276 75.2429 65.5782L67.5049 70.1284C66.8458 70.5012 66.1035 70.697 65.3486 70.697C64.5937 70.697 63.8513 70.5012 63.1922 70.1284L55.4543 65.7046C54.8144 65.3328 54.2799 64.8002 53.9025 64.1581C53.525 63.5161 53.3173 62.7863 53.2993 62.0392V56.2245L46.5765 60.1427V65.9568C46.5676 66.7096 46.7642 67.4502 47.1444 68.097C47.5247 68.7438 48.0739 69.2716 48.7314 69.6222L63.3192 77.9642C63.9784 78.3371 64.7207 78.5328 65.4756 78.5328C66.2305 78.5328 66.9728 78.3371 67.632 77.9642L82.2198 69.6222C82.8596 69.2504 83.3941 68.7178 83.7716 68.0758C84.149 67.4337 84.3568 66.7039 84.3747 65.9568V49.1471C84.3836 48.3943 84.187 47.6537 83.8068 47.0069C83.4265 46.3601 82.8773 45.8323 82.2198 45.4816L67.5066 37.0133Z" fill="#5E5E5E"/>
</svg>
