<svg width="100" height="100" viewBox="0 0 100 100" fill="none" xmlns="http://www.w3.org/2000/svg">
<g clip-path="url(#clip0_5_68)">
<path d="M50 100C77.6142 100 100 77.6145 100 50.0003C100 22.3861 77.6142 0.000305176 50 0.000305176C22.3858 0.000305176 0 22.3861 0 50.0003C0 77.6145 22.3858 100 50 100Z" fill="#5E5E5E"/>
<path fill-rule="evenodd" clip-rule="evenodd" d="M47.9373 40.9464C47.9884 40.9231 48.0318 40.8856 48.0621 40.8382C48.0924 40.7909 48.1084 40.7359 48.1081 40.6797V16.0672C48.1081 15.7672 47.7123 15.6589 47.5623 15.9214L28.3956 49.213C28.3639 49.2667 28.3502 49.3291 28.3565 49.3912C28.3629 49.4532 28.3889 49.5116 28.4309 49.5577C28.4728 49.6039 28.5284 49.6353 28.5896 49.6476C28.6507 49.6598 28.7142 49.652 28.7706 49.6255L47.9373 40.9464ZM48.1081 65.3464C48.109 65.3992 48.0956 65.4514 48.0692 65.4972C48.0427 65.543 48.0044 65.5807 47.9582 65.6064C47.9119 65.6321 47.8596 65.6447 47.8068 65.643C47.7539 65.6412 47.7025 65.6251 47.6581 65.5964L28.3998 53.5422C28.3539 53.5149 28.3164 53.4756 28.2913 53.4285C28.2662 53.3814 28.2546 53.3283 28.2576 53.275C28.2606 53.2217 28.2782 53.1703 28.3084 53.1263C28.3386 53.0823 28.3803 53.0475 28.429 53.0255L47.6915 44.013C47.7362 43.9918 47.7855 43.9823 47.8349 43.9855C47.8843 43.9886 47.932 44.0042 47.9737 44.0309C48.0154 44.0576 48.0496 44.0944 48.0731 44.1379C48.0966 44.1814 48.1087 44.2302 48.1081 44.2797V65.3464ZM47.9415 86.3797C47.9415 86.6714 47.5665 86.7839 47.3998 86.5464L27.5665 57.1297C27.3873 56.8589 27.6998 56.5422 27.9706 56.713L47.804 69.5131C47.8458 69.5391 47.8803 69.5753 47.9044 69.6183C47.9284 69.6613 47.9412 69.7096 47.9415 69.7589V86.3797ZM49.5831 40.9464C49.532 40.9231 49.4887 40.8856 49.4584 40.8382C49.4281 40.7909 49.4121 40.7359 49.4123 40.6797V16.0672C49.4123 15.7672 49.8081 15.6589 49.9623 15.9214L69.1248 49.213C69.1565 49.2667 69.1702 49.3291 69.1639 49.3912C69.1576 49.4532 69.1315 49.5116 69.0896 49.5577C69.0476 49.6039 68.992 49.6353 68.9308 49.6476C68.8697 49.6598 68.8062 49.652 68.7498 49.6255L49.5831 40.9464ZM49.4123 65.3464C49.4123 65.5755 49.6623 65.7172 49.8623 65.5964L69.1206 53.5422C69.1665 53.5149 69.204 53.4756 69.2291 53.4285C69.2542 53.3814 69.2659 53.3283 69.2628 53.275C69.2598 53.2217 69.2423 53.1703 69.212 53.1263C69.1818 53.0823 69.1401 53.0475 69.0915 53.0255L49.829 44.013C49.7843 43.9918 49.7349 43.9823 49.6855 43.9855C49.6362 43.9886 49.5884 44.0042 49.5467 44.0309C49.5051 44.0576 49.4709 44.0944 49.4473 44.1379C49.4238 44.1814 49.4118 44.2302 49.4123 44.2797V65.3464ZM49.4123 86.3964C49.4123 86.688 49.7873 86.8005 49.9498 86.563L70.0748 57.1297C70.254 56.863 69.9415 56.5422 69.6706 56.713L49.5456 69.5172C49.504 69.5441 49.4699 69.5812 49.4466 69.6249C49.4232 69.6687 49.4114 69.7176 49.4123 69.7672V86.3964Z" fill="#FCFCFC"/>
</g>
<defs>
<clipPath id="clip0_5_68">
<rect width="100" height="100" fill="white"/>
</clipPath>
</defs>
</svg>
