<svg width="196" height="46" viewBox="0 0 196 46" fill="none" xmlns="http://www.w3.org/2000/svg">
<path d="M81.459 23.3826C81.2246 22.7026 80.9823 22.0309 80.7314 21.3675C80.4804 20.7041 80.2373 20.0241 80.0037 19.3275H72.6751C72.4407 20.0241 72.1985 20.7124 71.9475 21.3924C71.7131 22.0558 71.4787 22.7192 71.2443 23.3826H67.9573C68.6091 21.5416 69.2287 19.8417 69.8143 18.2827C70.3999 16.7236 70.9689 15.2476 71.5205 13.8544C72.0895 12.4613 72.6499 11.1344 73.2023 9.87396C73.7539 8.61349 74.323 7.3696 74.9086 6.14229H77.8949C78.4805 7.3696 79.0495 8.61349 79.602 9.87396C80.1536 11.1344 80.7061 12.4613 81.2586 13.8544C81.8267 15.2476 82.4045 16.7236 82.9901 18.2827C83.5922 19.8417 84.2196 21.5416 84.8723 23.3826H81.459ZM76.3394 9.47592C75.9543 10.3549 75.5107 11.4247 75.0088 12.6852C74.5243 13.9456 74.0136 15.3139 73.4786 16.79H79.2003C78.6652 15.3139 78.1459 13.9373 77.6439 12.6603C77.142 11.3832 76.7072 10.3218 76.3394 9.47592ZM85.8492 16.8895C85.8492 15.9276 85.9999 15.032 86.3006 14.2027C86.6021 13.3569 87.0282 12.6271 87.5807 12.0135C88.1497 11.3998 88.8355 10.9188 89.639 10.5705C90.4416 10.2223 91.3452 10.0481 92.3491 10.0481C93.5874 10.0481 94.7586 10.272 95.8626 10.7198L95.2099 13.1827C94.8588 13.0334 94.457 12.9091 94.0057 12.8095C93.5708 12.71 93.102 12.6603 92.6001 12.6603C91.4123 12.6603 90.5087 13.0334 89.89 13.7798C89.2704 14.5095 88.961 15.5461 88.961 16.8895C88.961 18.1831 89.2538 19.2114 89.8394 19.9743C90.425 20.7207 91.4123 21.0938 92.8005 21.0938C93.3199 21.0938 93.8296 21.0441 94.3316 20.9446C94.8335 20.8451 95.2683 20.7207 95.6369 20.5714L96.0631 23.0592C95.7284 23.225 95.2187 23.3743 94.5329 23.507C93.8636 23.6397 93.1691 23.706 92.4493 23.706C91.3287 23.706 90.3501 23.5402 89.5135 23.2085C88.6935 22.8602 88.0077 22.3875 87.4552 21.7904C86.9202 21.1768 86.5184 20.4553 86.2509 19.6261C85.9825 18.7802 85.8492 17.868 85.8492 16.8895ZM97.6865 16.8895C97.6865 15.9276 97.8373 15.032 98.1388 14.2027C98.4394 13.3569 98.8664 12.6271 99.418 12.0135C99.9871 11.3998 100.673 10.9188 101.476 10.5705C102.28 10.2223 103.183 10.0481 104.186 10.0481C105.425 10.0481 106.596 10.272 107.7 10.7198L107.048 13.1827C106.696 13.0334 106.295 12.9091 105.843 12.8095C105.408 12.71 104.939 12.6603 104.437 12.6603C103.25 12.6603 102.346 13.0334 101.727 13.7798C101.109 14.5095 100.798 15.5461 100.798 16.8895C100.798 18.1831 101.091 19.2114 101.677 19.9743C102.262 20.7207 103.25 21.0938 104.639 21.0938C105.157 21.0938 105.668 21.0441 106.17 20.9446C106.672 20.8451 107.107 20.7207 107.474 20.5714L107.901 23.0592C107.567 23.225 107.056 23.3743 106.37 23.507C105.701 23.6397 105.006 23.706 104.287 23.706C103.166 23.706 102.187 23.5402 101.351 23.2085C100.531 22.8602 99.845 22.3875 99.2925 21.7904C98.7575 21.1768 98.3558 20.4553 98.0882 19.6261C97.8207 18.7802 97.6865 17.868 97.6865 16.8895ZM117.731 13.0832C117.48 13.0003 117.129 12.9173 116.677 12.8344C116.242 12.7349 115.732 12.6852 115.146 12.6852C114.812 12.6852 114.452 12.7183 114.067 12.7847C113.699 12.851 113.439 12.9091 113.289 12.9588V23.3826H110.252V10.9935C110.838 10.7779 111.566 10.5788 112.435 10.3964C113.322 10.1974 114.301 10.0979 115.372 10.0979C115.572 10.0979 115.807 10.1144 116.074 10.1476C116.343 10.1642 116.61 10.1974 116.878 10.2471C117.145 10.2803 117.405 10.3301 117.656 10.3964C117.907 10.4462 118.107 10.4959 118.258 10.5457L117.731 13.0832ZM119.646 16.9393C119.646 15.7949 119.814 14.7915 120.148 13.929C120.499 13.0666 120.959 12.3534 121.528 11.7896C122.097 11.2091 122.75 10.7779 123.487 10.4959C124.222 10.1974 124.975 10.0481 125.745 10.0481C127.552 10.0481 128.957 10.6037 129.961 11.7149C130.982 12.8261 131.492 14.4846 131.492 16.6905C131.492 16.8563 131.484 17.0471 131.467 17.2627C131.467 17.4617 131.458 17.6441 131.442 17.81H122.783C122.867 18.8548 123.236 19.6675 123.887 20.248C124.557 20.8119 125.519 21.0938 126.774 21.0938C127.51 21.0938 128.179 21.0275 128.781 20.8948C129.401 20.7621 129.886 20.6212 130.237 20.4719L130.639 22.9348C130.472 23.0177 130.237 23.1089 129.936 23.2085C129.652 23.2914 129.317 23.366 128.932 23.4324C128.564 23.5153 128.163 23.5816 127.728 23.6314C127.293 23.6811 126.849 23.706 126.397 23.706C125.243 23.706 124.239 23.5402 123.385 23.2085C122.532 22.8602 121.83 22.3875 121.277 21.7904C120.726 21.1768 120.315 20.4636 120.048 19.6509C119.78 18.8217 119.646 17.9178 119.646 16.9393ZM128.455 15.5959C128.455 15.1812 128.397 14.7915 128.279 14.4266C128.163 14.0451 127.987 13.7217 127.753 13.4564C127.535 13.1744 127.259 12.9588 126.924 12.8095C126.606 12.6437 126.222 12.5608 125.77 12.5608C125.302 12.5608 124.891 12.652 124.54 12.8344C124.189 13.0003 123.887 13.2242 123.636 13.5061C123.403 13.7881 123.218 14.1115 123.085 14.4764C122.951 14.8412 122.859 15.2144 122.809 15.5959H128.455ZM137.095 16.8397C137.095 18.1666 137.414 19.2114 138.05 19.9743C138.685 20.7207 139.563 21.0938 140.685 21.0938C141.17 21.0938 141.58 21.0773 141.914 21.0441C142.266 20.9943 142.551 20.9446 142.767 20.8948V13.4315C142.5 13.249 142.14 13.0832 141.689 12.9339C141.254 12.7681 140.785 12.6852 140.283 12.6852C139.179 12.6852 138.368 13.0583 137.848 13.8047C137.346 14.551 137.095 15.5627 137.095 16.8397ZM145.804 22.9846C145.202 23.167 144.441 23.3328 143.52 23.4821C142.617 23.6314 141.663 23.706 140.66 23.706C139.623 23.706 138.694 23.5485 137.874 23.2333C137.054 22.9182 136.351 22.4704 135.766 21.8899C135.197 21.2929 134.753 20.5797 134.436 19.7504C134.134 18.9046 133.984 17.9592 133.984 16.9144C133.984 15.8861 134.109 14.9573 134.36 14.1281C134.628 13.2822 135.013 12.5608 135.515 11.9637C136.017 11.3666 136.627 10.9105 137.346 10.5954C138.066 10.2637 138.894 10.0979 139.832 10.0979C140.467 10.0979 141.027 10.1725 141.513 10.3218C141.998 10.471 142.416 10.6369 142.767 10.8193V4.57499L145.804 4.07744V22.9846ZM152.723 23.3826H149.687V10.3715H152.723V23.3826ZM153.05 6.56522C153.05 7.12912 152.866 7.57692 152.498 7.90862C152.13 8.24032 151.695 8.40617 151.193 8.40617C150.674 8.40617 150.231 8.24032 149.863 7.90862C149.495 7.57692 149.311 7.12912 149.311 6.56522C149.311 5.98474 149.495 5.52864 149.863 5.19694C150.231 4.86523 150.674 4.69938 151.193 4.69938C151.695 4.69938 152.13 4.86523 152.498 5.19694C152.866 5.52864 153.05 5.98474 153.05 6.56522ZM156.447 6.93838L159.484 6.44083V10.3715H164.152V12.8842H159.484V18.1831C159.484 19.228 159.651 19.9743 159.986 20.4221C160.32 20.8699 160.889 21.0938 161.693 21.0938C162.245 21.0938 162.73 21.0358 163.148 20.9197C163.583 20.8036 163.926 20.6958 164.177 20.5963L164.679 22.9846C164.328 23.1338 163.868 23.2831 163.299 23.4324C162.73 23.5982 162.061 23.6811 161.291 23.6811C160.354 23.6811 159.568 23.5567 158.932 23.308C158.313 23.0592 157.819 22.7026 157.451 22.2382C157.083 21.7573 156.823 21.1851 156.674 20.5217C156.523 19.8417 156.447 19.0705 156.447 18.208V6.93838ZM166.139 16.9393C166.139 15.7949 166.306 14.7915 166.641 13.929C166.992 13.0666 167.452 12.3534 168.021 11.7896C168.59 11.2091 169.243 10.7779 169.979 10.4959C170.715 10.1974 171.468 10.0481 172.238 10.0481C174.044 10.0481 175.45 10.6037 176.454 11.7149C177.474 12.8261 177.985 14.4846 177.985 16.6905C177.985 16.8563 177.976 17.0471 177.96 17.2627C177.96 17.4617 177.951 17.6441 177.934 17.81H169.276C169.36 18.8548 169.728 19.6675 170.38 20.248C171.049 20.8119 172.011 21.0938 173.266 21.0938C174.003 21.0938 174.672 21.0275 175.274 20.8948C175.894 20.7621 176.379 20.6212 176.73 20.4719L177.132 22.9348C176.964 23.0177 176.73 23.1089 176.429 23.2085C176.144 23.2914 175.81 23.366 175.425 23.4324C175.057 23.5153 174.655 23.5816 174.22 23.6314C173.786 23.6811 173.342 23.706 172.89 23.706C171.736 23.706 170.732 23.5402 169.878 23.2085C169.025 22.8602 168.323 22.3875 167.77 21.7904C167.219 21.1768 166.808 20.4636 166.541 19.6509C166.273 18.8217 166.139 17.9178 166.139 16.9393ZM174.948 15.5959C174.948 15.1812 174.89 14.7915 174.772 14.4266C174.655 14.0451 174.479 13.7217 174.246 13.4564C174.028 13.1744 173.752 12.9588 173.417 12.8095C173.099 12.6437 172.715 12.5608 172.262 12.5608C171.794 12.5608 171.384 12.652 171.033 12.8344C170.682 13.0003 170.38 13.2242 170.129 13.5061C169.896 13.7881 169.711 14.1115 169.577 14.4764C169.443 14.8412 169.352 15.2144 169.301 15.5959H174.948ZM183.589 16.8397C183.589 18.1666 183.906 19.2114 184.542 19.9743C185.178 20.7207 186.057 21.0938 187.177 21.0938C187.663 21.0938 188.072 21.0773 188.407 21.0441C188.758 20.9943 189.043 20.9446 189.26 20.8948V13.4315C188.993 13.249 188.633 13.0832 188.181 12.9339C187.747 12.7681 187.278 12.6852 186.776 12.6852C185.672 12.6852 184.86 13.0583 184.342 13.8047C183.84 14.551 183.589 15.5627 183.589 16.8397ZM192.297 22.9846C191.695 23.167 190.933 23.3328 190.013 23.4821C189.11 23.6314 188.156 23.706 187.152 23.706C186.115 23.706 185.186 23.5485 184.366 23.2333C183.547 22.9182 182.844 22.4704 182.258 21.8899C181.689 21.2929 181.247 20.5797 180.929 19.7504C180.627 18.9046 180.476 17.9592 180.476 16.9144C180.476 15.8861 180.602 14.9573 180.853 14.1281C181.121 13.2822 181.505 12.5608 182.007 11.9637C182.509 11.3666 183.12 10.9105 183.84 10.5954C184.559 10.2637 185.388 10.0979 186.324 10.0979C186.96 10.0979 187.521 10.1725 188.005 10.3218C188.491 10.471 188.909 10.6369 189.26 10.8193V4.57499L192.297 4.07744V22.9846ZM75.8628 35.4787C75.8628 36.2168 75.7451 36.8595 75.5107 37.4068C75.2772 37.9541 74.946 38.4102 74.5199 38.775C74.1016 39.1399 73.5997 39.4136 73.0141 39.596C72.4285 39.7784 71.7845 39.8697 71.0813 39.8697C70.7301 39.8697 70.3624 39.8489 69.9772 39.8075C69.5921 39.7743 69.2539 39.7204 68.9611 39.6458V31.3366C69.2539 31.2537 69.5921 31.1956 69.9772 31.1624C70.3624 31.121 70.7301 31.1002 71.0813 31.1002C71.7845 31.1002 72.4285 31.1915 73.0141 31.3739C73.5997 31.5563 74.1016 31.83 74.5199 32.1949C74.946 32.5597 75.2772 33.0158 75.5107 33.5631C75.7451 34.1105 75.8628 34.749 75.8628 35.4787ZM69.8143 39.0487C69.8639 39.057 69.9894 39.0736 70.1907 39.0984C70.3999 39.1233 70.7301 39.1358 71.1815 39.1358C71.8089 39.1358 72.3571 39.0528 72.8259 38.887C73.2938 38.7128 73.6877 38.4682 74.0049 38.1531C74.323 37.838 74.5617 37.4565 74.7203 37.0087C74.8798 36.5526 74.9591 36.0426 74.9591 35.4787C74.9591 34.9148 74.8798 34.409 74.7203 33.9612C74.5617 33.5134 74.323 33.1319 74.0049 32.8168C73.6877 32.5017 73.2938 32.2612 72.8259 32.0954C72.3571 31.9212 71.8089 31.8341 71.1815 31.8341C70.7301 31.8341 70.3999 31.8466 70.1907 31.8715C69.9894 31.8963 69.8639 31.9129 69.8143 31.9212V39.0487ZM78.5371 39.795H77.7215V33.3641H78.5371V39.795ZM78.7254 31.4237C78.7254 31.6144 78.667 31.7678 78.5493 31.8839C78.4326 31.9917 78.2905 32.0456 78.1232 32.0456C77.9559 32.0456 77.8139 31.9917 77.6962 31.8839C77.5795 31.7678 77.5211 31.6144 77.5211 31.4237C77.5211 31.2329 77.5795 31.0837 77.6962 30.9759C77.8139 30.8598 77.9559 30.8017 78.1232 30.8017C78.2905 30.8017 78.4326 30.8598 78.5493 30.9759C78.667 31.0837 78.7254 31.2329 78.7254 31.4237ZM84.9281 39.0487C84.8776 39.0902 84.8026 39.1399 84.7024 39.198C84.6022 39.2477 84.4767 39.3016 84.326 39.3597C84.1839 39.4177 84.0166 39.4675 83.824 39.5089C83.6402 39.5421 83.431 39.5587 83.1966 39.5587C82.8202 39.5587 82.4559 39.5006 82.1047 39.3845C81.7535 39.2684 81.4442 39.086 81.1758 38.8372C80.917 38.5885 80.7078 38.2692 80.5484 37.8794C80.3898 37.4814 80.3105 37.0004 80.3105 36.4365C80.3105 35.9804 80.3811 35.5575 80.524 35.1678C80.666 34.778 80.8664 34.4422 81.1261 34.1602C81.3936 33.87 81.7161 33.6461 82.0925 33.4885C82.4768 33.3227 82.9082 33.2397 83.3848 33.2397C83.987 33.2397 84.468 33.2812 84.8279 33.3641C85.1956 33.4388 85.4972 33.5134 85.7316 33.588V39.4592C85.7316 40.4211 85.4806 41.1053 84.9787 41.5116C84.4767 41.9262 83.7195 42.1335 82.7069 42.1335C82.2886 42.1335 81.9078 42.1004 81.5653 42.034C81.2307 41.976 80.9423 41.9055 80.6991 41.8226L80.8621 41.0887C81.0634 41.1799 81.3353 41.2587 81.6777 41.325C82.0298 41.3914 82.381 41.4245 82.7321 41.4245C83.5016 41.4245 84.0584 41.2753 84.4009 40.9767C84.7521 40.6865 84.9281 40.1848 84.9281 39.4716V39.0487ZM84.9159 34.1478C84.773 34.1063 84.5891 34.069 84.3634 34.0358C84.1377 33.9944 83.8153 33.9736 83.397 33.9736C83.0459 33.9736 82.7321 34.0358 82.4559 34.1602C82.1884 34.2763 81.9583 34.4463 81.7657 34.6702C81.5732 34.8858 81.4268 35.147 81.3265 35.4539C81.2263 35.7524 81.1758 36.0841 81.1758 36.449C81.1758 36.8719 81.2351 37.2368 81.3518 37.5436C81.4686 37.8421 81.6193 38.0868 81.8032 38.2775C81.9958 38.4682 82.2136 38.6092 82.4559 38.7004C82.699 38.7833 82.9456 38.8248 83.1966 38.8248C83.5643 38.8248 83.899 38.7709 84.2005 38.6631C84.5098 38.5553 84.7486 38.4309 84.9159 38.2899V34.1478ZM88.7083 39.795H87.8927V33.3641H88.7083V39.795ZM88.8965 31.4237C88.8965 31.6144 88.8382 31.7678 88.7205 31.8839C88.6037 31.9917 88.4617 32.0456 88.2944 32.0456C88.1271 32.0456 87.9842 31.9917 87.8674 31.8839C87.7506 31.7678 87.6914 31.6144 87.6914 31.4237C87.6914 31.2329 87.7506 31.0837 87.8674 30.9759C87.9842 30.8598 88.1271 30.8017 88.2944 30.8017C88.4617 30.8017 88.6037 30.8598 88.7205 30.9759C88.8382 31.0837 88.8965 31.2329 88.8965 31.4237ZM91.6354 33.3641H94.2209V34.0483H91.6354V37.469C91.6354 37.8338 91.665 38.1324 91.7234 38.3646C91.7905 38.5885 91.8829 38.7626 91.9997 38.887C92.1164 39.0114 92.2593 39.0943 92.4266 39.1358C92.594 39.1772 92.7778 39.198 92.9783 39.198C93.3216 39.198 93.5978 39.1606 93.807 39.086C94.0161 39.0031 94.1791 38.9285 94.2958 38.8621L94.4971 39.5338C94.3795 39.6084 94.1747 39.6955 93.8819 39.795C93.5891 39.8862 93.2711 39.9319 92.9286 39.9319C92.5269 39.9319 92.1879 39.8821 91.9116 39.7826C91.6441 39.6748 91.4263 39.5172 91.2589 39.3099C91.1004 39.0943 90.9871 38.8289 90.9208 38.5138C90.8537 38.1987 90.8198 37.8255 90.8198 37.3943V31.4734L91.6354 31.3241V33.3641ZM97.7684 39.2104C98.0865 39.2104 98.3627 39.2021 98.5963 39.1855C98.8394 39.1606 99.0442 39.1316 99.2115 39.0984V36.8346C99.1191 36.7931 98.9727 36.7517 98.7723 36.7102C98.5719 36.6604 98.2956 36.6356 97.9445 36.6356C97.7432 36.6356 97.534 36.6521 97.317 36.6853C97.0992 36.7102 96.8988 36.7724 96.714 36.8719C96.5301 36.9631 96.3794 37.0916 96.2626 37.2575C96.1459 37.4234 96.0866 37.6431 96.0866 37.9168C96.0866 38.1572 96.1249 38.3604 96.1999 38.5263C96.2835 38.6921 96.3968 38.8248 96.5389 38.9243C96.6896 39.0238 96.8648 39.0985 97.0661 39.1482C97.2752 39.1897 97.5087 39.2104 97.7684 39.2104ZM97.6935 33.2149C98.1196 33.2149 98.4795 33.2771 98.7723 33.4014C99.0738 33.5175 99.3161 33.6834 99.4999 33.899C99.6838 34.1063 99.818 34.3551 99.9017 34.6453C99.9853 34.9356 100.027 35.2507 100.027 35.5907V39.6458C99.9435 39.6706 99.8224 39.6997 99.6629 39.7328C99.5043 39.7577 99.3204 39.7867 99.1113 39.8199C98.9021 39.8531 98.6677 39.878 98.4081 39.8945C98.1571 39.9194 97.8983 39.9319 97.6307 39.9319C97.2874 39.9319 96.9693 39.8945 96.6765 39.8199C96.3925 39.7453 96.1415 39.6292 95.9236 39.4716C95.7145 39.3058 95.5472 39.0985 95.4217 38.8497C95.3049 38.5926 95.2465 38.2816 95.2465 37.9168C95.2465 37.5685 95.3128 37.2699 95.447 37.0212C95.5812 36.7724 95.7694 36.5692 96.0117 36.4116C96.2539 36.2458 96.5432 36.1256 96.8778 36.0509C97.2125 35.9763 97.5758 35.939 97.9689 35.939C98.0865 35.939 98.2076 35.9473 98.3331 35.9639C98.4673 35.9721 98.5928 35.9887 98.7096 36.0136C98.835 36.0302 98.9396 36.0509 99.0233 36.0758C99.1156 36.0924 99.1784 36.109 99.2115 36.1256V35.7275C99.2115 35.5036 99.1949 35.288 99.161 35.0807C99.1278 34.8651 99.0529 34.6744 98.9353 34.5085C98.8263 34.3344 98.6677 34.1975 98.4586 34.098C98.2582 33.9902 97.9898 33.9363 97.6551 33.9363C97.1785 33.9363 96.8229 33.9695 96.5885 34.0358C96.355 34.1022 96.1833 34.1561 96.0744 34.1975L95.9611 33.4885C96.104 33.4222 96.321 33.36 96.6138 33.3019C96.9153 33.2439 97.2752 33.2149 97.6935 33.2149ZM103.752 39.907C103.475 39.8987 103.233 39.8614 103.024 39.795C102.823 39.737 102.651 39.6458 102.509 39.5214C102.376 39.3887 102.271 39.2228 102.195 39.0238C102.128 38.8165 102.095 38.5594 102.095 38.2526V30.2917L102.911 30.1424V38.2277C102.911 38.4268 102.927 38.5885 102.961 38.7128C103.003 38.8289 103.061 38.9243 103.136 38.9989C103.212 39.0653 103.308 39.115 103.425 39.1482C103.55 39.1814 103.697 39.2104 103.864 39.2353L103.752 39.907ZM114.059 39.795C113.9 39.3721 113.749 38.9658 113.607 38.576C113.465 38.1863 113.327 37.8048 113.193 37.4316H108.964C108.822 37.8048 108.679 38.1863 108.537 38.576C108.395 38.9658 108.249 39.3721 108.098 39.795H107.208C107.542 38.8994 107.856 38.066 108.149 37.2948C108.442 36.5153 108.726 35.7814 109.002 35.0931C109.286 34.3965 109.567 33.729 109.843 33.0905C110.119 32.4519 110.412 31.8134 110.721 31.1749H111.474C111.783 31.8134 112.076 32.4519 112.352 33.0905C112.629 33.729 112.904 34.3965 113.18 35.0931C113.465 35.7814 113.754 36.5153 114.046 37.2948C114.339 38.066 114.657 38.8994 115 39.795H114.059ZM111.072 32.1451C110.754 32.8583 110.445 33.5839 110.143 34.3219C109.851 35.06 109.546 35.8561 109.228 36.7102H112.929C112.611 35.8561 112.302 35.06 112.001 34.3219C111.7 33.5839 111.39 32.8583 111.072 32.1451ZM117.689 39.2228C118.158 39.2228 118.543 39.1482 118.844 38.9989C119.153 38.8414 119.308 38.5802 119.308 38.2153C119.308 38.0411 119.278 37.8919 119.22 37.7675C119.17 37.6431 119.082 37.5312 118.957 37.4316C118.831 37.3321 118.664 37.2368 118.455 37.1455C118.254 37.0543 118.003 36.9465 117.702 36.8221C117.459 36.7226 117.229 36.6231 117.012 36.5236C116.794 36.4158 116.601 36.2956 116.434 36.1629C116.267 36.0219 116.134 35.856 116.033 35.6653C115.932 35.4746 115.883 35.2424 115.883 34.9687C115.883 34.4463 116.079 34.0234 116.473 33.7C116.873 33.3766 117.421 33.2149 118.116 33.2149C118.56 33.2149 118.923 33.2522 119.208 33.3268C119.501 33.4014 119.705 33.4678 119.822 33.5258L119.634 34.2473C119.534 34.1975 119.362 34.1312 119.12 34.0483C118.885 33.9653 118.539 33.9239 118.079 33.9239C117.895 33.9239 117.719 33.9446 117.551 33.9861C117.393 34.0192 117.25 34.0773 117.124 34.1602C116.999 34.2348 116.899 34.3344 116.824 34.4587C116.748 34.5748 116.71 34.72 116.71 34.8941C116.71 35.0682 116.744 35.2175 116.811 35.3419C116.878 35.4663 116.974 35.5782 117.1 35.6778C117.233 35.769 117.393 35.856 117.577 35.939C117.769 36.0219 117.986 36.1131 118.229 36.2126C118.48 36.3121 118.718 36.4158 118.944 36.5236C119.178 36.6231 119.383 36.7475 119.559 36.8968C119.735 37.0377 119.877 37.2119 119.986 37.4192C120.094 37.6182 120.149 37.8712 120.149 38.178C120.149 38.7585 119.927 39.198 119.484 39.4965C119.048 39.795 118.451 39.9443 117.689 39.9443C117.121 39.9443 116.685 39.8945 116.384 39.795C116.083 39.7038 115.883 39.6333 115.782 39.5836L115.995 38.8497C116.02 38.8663 116.075 38.8953 116.159 38.9367C116.242 38.9699 116.355 39.0114 116.497 39.0611C116.64 39.1026 116.807 39.1399 116.999 39.1731C117.2 39.2063 117.43 39.2228 117.689 39.2228ZM123.057 39.2228C123.525 39.2228 123.91 39.1482 124.212 38.9989C124.521 38.8414 124.675 38.5802 124.675 38.2153C124.675 38.0411 124.646 37.8919 124.588 37.7675C124.537 37.6431 124.449 37.5312 124.324 37.4316C124.198 37.3321 124.031 37.2368 123.822 37.1455C123.622 37.0543 123.371 36.9465 123.069 36.8221C122.827 36.7226 122.597 36.6231 122.379 36.5236C122.162 36.4158 121.969 36.2956 121.802 36.1629C121.635 36.0219 121.501 35.856 121.4 35.6653C121.3 35.4746 121.25 35.2424 121.25 34.9687C121.25 34.4463 121.447 34.0234 121.84 33.7C122.241 33.3766 122.789 33.2149 123.483 33.2149C123.927 33.2149 124.291 33.2522 124.575 33.3268C124.868 33.4014 125.073 33.4678 125.19 33.5258L125.002 34.2473C124.902 34.1975 124.73 34.1312 124.487 34.0483C124.253 33.9653 123.906 33.9239 123.446 33.9239C123.262 33.9239 123.086 33.9446 122.918 33.9861C122.76 34.0192 122.618 34.0773 122.492 34.1602C122.367 34.2348 122.267 34.3344 122.191 34.4587C122.116 34.5748 122.078 34.72 122.078 34.8941C122.078 35.0682 122.111 35.2175 122.179 35.3419C122.246 35.4663 122.341 35.5782 122.467 35.6778C122.601 35.769 122.76 35.856 122.944 35.939C123.136 36.0219 123.354 36.1131 123.596 36.2126C123.847 36.3121 124.086 36.4158 124.312 36.5236C124.546 36.6231 124.751 36.7475 124.926 36.8968C125.102 37.0377 125.244 37.2119 125.353 37.4192C125.462 37.6182 125.516 37.8712 125.516 38.178C125.516 38.7585 125.295 39.198 124.851 39.4965C124.416 39.795 123.818 39.9443 123.057 39.9443C122.488 39.9443 122.053 39.8945 121.752 39.795C121.451 39.7038 121.25 39.6333 121.149 39.5836L121.363 38.8497C121.388 38.8663 121.442 38.8953 121.526 38.9367C121.61 38.9699 121.723 39.0114 121.865 39.0611C122.007 39.1026 122.174 39.1399 122.367 39.1731C122.567 39.2063 122.797 39.2228 123.057 39.2228ZM126.705 36.5734C126.705 36.0095 126.785 35.5202 126.943 35.1056C127.111 34.6826 127.324 34.3302 127.583 34.0483C127.851 33.7663 128.152 33.559 128.487 33.4263C128.83 33.2853 129.181 33.2149 129.541 33.2149C130.336 33.2149 130.968 33.4719 131.436 33.9861C131.912 34.5002 132.151 35.2921 132.151 36.3619C132.151 36.4282 132.147 36.4946 132.139 36.5609C132.139 36.6273 132.134 36.6894 132.126 36.7475H127.571C127.596 37.5353 127.792 38.1407 128.161 38.5636C128.529 38.9865 129.114 39.198 129.918 39.198C130.361 39.198 130.712 39.1565 130.971 39.0736C131.231 38.9907 131.419 38.9202 131.536 38.8621L131.687 39.5587C131.57 39.625 131.348 39.7038 131.022 39.795C130.704 39.8862 130.327 39.9319 129.892 39.9319C129.323 39.9319 128.838 39.8489 128.437 39.6831C128.035 39.5172 127.705 39.285 127.445 38.9865C127.186 38.688 126.997 38.3355 126.881 37.9292C126.764 37.5146 126.705 37.0626 126.705 36.5734ZM131.31 36.0634C131.294 35.3917 131.135 34.8692 130.833 34.4961C130.532 34.1229 130.106 33.9363 129.553 33.9363C129.261 33.9363 128.997 33.9944 128.763 34.1105C128.537 34.2266 128.336 34.3841 128.161 34.5831C127.993 34.7739 127.859 34.9978 127.759 35.2548C127.667 35.5119 127.613 35.7814 127.596 36.0634H131.31ZM134.734 33.3641H137.319V34.0483H134.734V37.469C134.734 37.8338 134.764 38.1324 134.822 38.3646C134.889 38.5885 134.981 38.7626 135.098 38.887C135.215 39.0114 135.357 39.0943 135.524 39.1358C135.692 39.1772 135.876 39.198 136.077 39.198C136.42 39.198 136.695 39.1606 136.905 39.086C137.114 39.0031 137.278 38.9285 137.394 38.8621L137.595 39.5338C137.478 39.6084 137.273 39.6955 136.98 39.795C136.688 39.8862 136.37 39.9319 136.026 39.9319C135.625 39.9319 135.286 39.8821 135.01 39.7826C134.743 39.6748 134.525 39.5172 134.357 39.3099C134.199 39.0943 134.086 38.8289 134.018 38.5138C133.952 38.1987 133.918 37.8255 133.918 37.3943V31.4734L134.734 31.3241V33.3641ZM145.341 39.9816C144.78 39.9816 144.258 39.8821 143.772 39.6831C143.296 39.4841 142.877 39.1938 142.517 38.8124C142.166 38.4309 141.886 37.9624 141.676 37.4068C141.476 36.8429 141.376 36.2002 141.376 35.4787C141.376 34.7573 141.484 34.1187 141.702 33.5631C141.927 32.9993 142.225 32.5266 142.592 32.1451C142.961 31.7637 143.387 31.4776 143.872 31.2868C144.358 31.0878 144.864 30.9883 145.391 30.9883C145.717 30.9883 146.014 31.009 146.282 31.0505C146.549 31.092 146.784 31.1459 146.984 31.2122C147.186 31.2702 147.357 31.3324 147.499 31.3988C147.641 31.4568 147.75 31.5107 147.825 31.5605L147.549 32.2944C147.34 32.17 147.072 32.0497 146.746 31.9337C146.428 31.8093 146.031 31.7471 145.554 31.7471C145.011 31.7471 144.534 31.8383 144.123 32.0207C143.722 32.2032 143.384 32.4602 143.107 32.7919C142.831 33.1236 142.622 33.5175 142.48 33.9736C142.346 34.4297 142.279 34.9356 142.279 35.4912C142.279 36.0634 142.346 36.5817 142.48 37.046C142.622 37.5021 142.827 37.8919 143.094 38.2153C143.363 38.5387 143.689 38.7875 144.074 38.9616C144.467 39.1358 144.914 39.2228 145.416 39.2228C145.968 39.2228 146.428 39.1731 146.796 39.0736C147.173 38.9658 147.457 38.858 147.65 38.7502L147.888 39.4716C147.83 39.5131 147.729 39.5628 147.587 39.6209C147.444 39.6706 147.265 39.7245 147.047 39.7826C146.83 39.8406 146.579 39.8862 146.294 39.9194C146.01 39.9609 145.692 39.9816 145.341 39.9816ZM154.194 39.5711C153.952 39.6375 153.626 39.7121 153.216 39.795C152.806 39.878 152.304 39.9194 151.71 39.9194C151.225 39.9194 150.819 39.8489 150.493 39.708C150.167 39.567 149.904 39.368 149.702 39.1109C149.502 38.8538 149.355 38.5429 149.263 38.178C149.179 37.8131 149.138 37.4109 149.138 36.9714V33.3641H149.953V36.7102C149.953 37.1663 149.987 37.5519 150.053 37.867C150.12 38.1821 150.229 38.4392 150.38 38.6382C150.531 38.8289 150.723 38.9699 150.957 39.0611C151.2 39.1441 151.493 39.1855 151.835 39.1855C152.221 39.1855 152.555 39.1648 152.839 39.1233C153.124 39.0819 153.304 39.0445 153.379 39.0114V33.3641H154.194V39.5711ZM157.687 39.2228C158.156 39.2228 158.541 39.1482 158.842 38.9989C159.151 38.8414 159.306 38.5802 159.306 38.2153C159.306 38.0411 159.276 37.8919 159.218 37.7675C159.168 37.6431 159.08 37.5312 158.955 37.4316C158.829 37.3321 158.662 37.2368 158.453 37.1455C158.252 37.0543 158.001 36.9465 157.7 36.8221C157.457 36.7226 157.227 36.6231 157.01 36.5236C156.792 36.4158 156.599 36.2956 156.432 36.1629C156.265 36.0219 156.132 35.856 156.031 35.6653C155.93 35.4746 155.881 35.2424 155.881 34.9687C155.881 34.4463 156.077 34.0234 156.471 33.7C156.871 33.3766 157.419 33.2149 158.114 33.2149C158.558 33.2149 158.921 33.2522 159.206 33.3268C159.499 33.4014 159.703 33.4678 159.82 33.5258L159.632 34.2473C159.532 34.1975 159.36 34.1312 159.118 34.0483C158.883 33.9653 158.537 33.9239 158.077 33.9239C157.893 33.9239 157.717 33.9446 157.549 33.9861C157.391 34.0192 157.248 34.0773 157.122 34.1602C156.997 34.2348 156.897 34.3344 156.822 34.4587C156.746 34.5748 156.708 34.72 156.708 34.8941C156.708 35.0682 156.742 35.2175 156.809 35.3419C156.876 35.4663 156.972 35.5782 157.098 35.6778C157.231 35.769 157.391 35.856 157.575 35.939C157.767 36.0219 157.984 36.1131 158.227 36.2126C158.478 36.3121 158.716 36.4158 158.942 36.5236C159.176 36.6231 159.381 36.7475 159.557 36.8968C159.733 37.0377 159.875 37.2119 159.984 37.4192C160.092 37.6182 160.147 37.8712 160.147 38.178C160.147 38.7585 159.925 39.198 159.482 39.4965C159.046 39.795 158.449 39.9443 157.687 39.9443C157.119 39.9443 156.683 39.8945 156.382 39.795C156.081 39.7038 155.881 39.6333 155.78 39.5836L155.993 38.8497C156.018 38.8663 156.073 38.8953 156.157 38.9367C156.24 38.9699 156.353 39.0114 156.495 39.0611C156.638 39.1026 156.805 39.1399 156.997 39.1731C157.198 39.2063 157.428 39.2228 157.687 39.2228ZM162.49 33.3641H165.075V34.0483H162.49V37.469C162.49 37.8338 162.519 38.1324 162.578 38.3646C162.644 38.5885 162.737 38.7626 162.854 38.887C162.971 39.0114 163.113 39.0943 163.281 39.1358C163.448 39.1772 163.632 39.198 163.833 39.198C164.176 39.198 164.452 39.1606 164.661 39.086C164.87 39.0031 165.033 38.9285 165.151 38.8621L165.351 39.5338C165.234 39.6084 165.029 39.6955 164.736 39.795C164.443 39.8862 164.126 39.9319 163.783 39.9319C163.381 39.9319 163.042 39.8821 162.767 39.7826C162.498 39.6748 162.281 39.5172 162.114 39.3099C161.954 39.0943 161.842 38.8289 161.775 38.5138C161.708 38.1987 161.675 37.8255 161.675 37.3943V31.4734L162.49 31.3241V33.3641ZM172.112 36.5858C172.112 37.0916 172.036 37.5519 171.885 37.9665C171.743 38.3811 171.538 38.7336 171.271 39.0238C171.011 39.3141 170.702 39.5421 170.342 39.708C169.982 39.8655 169.584 39.9443 169.15 39.9443C168.715 39.9443 168.317 39.8655 167.958 39.708C167.598 39.5421 167.284 39.3141 167.016 39.0238C166.758 38.7336 166.552 38.3811 166.402 37.9665C166.259 37.5519 166.189 37.0916 166.189 36.5858C166.189 36.0799 166.259 35.6197 166.402 35.2051C166.552 34.7904 166.758 34.438 167.016 34.1478C167.284 33.8492 167.598 33.6212 167.958 33.4636C168.317 33.2978 168.715 33.2149 169.15 33.2149C169.584 33.2149 169.982 33.2978 170.342 33.4636C170.702 33.6212 171.011 33.8492 171.271 34.1478C171.538 34.438 171.743 34.7904 171.885 35.2051C172.036 35.6197 172.112 36.0799 172.112 36.5858ZM171.245 36.5858C171.245 35.7814 171.057 35.1429 170.681 34.6702C170.304 34.1892 169.794 33.9488 169.15 33.9488C168.506 33.9488 167.995 34.1892 167.619 34.6702C167.242 35.1429 167.054 35.7814 167.054 36.5858C167.054 37.3902 167.242 38.0287 167.619 38.5014C167.995 38.9741 168.506 39.2104 169.15 39.2104C169.794 39.2104 170.304 38.9741 170.681 38.5014C171.057 38.0287 171.245 37.3902 171.245 36.5858ZM179.038 39.596C178.795 39.6789 178.486 39.7577 178.11 39.8323C177.733 39.907 177.256 39.9443 176.68 39.9443C176.202 39.9443 175.767 39.8697 175.374 39.7204C174.989 39.5628 174.654 39.3389 174.37 39.0487C174.094 38.7585 173.877 38.406 173.718 37.9914C173.567 37.5768 173.492 37.1082 173.492 36.5858C173.492 36.0965 173.555 35.6487 173.68 35.2424C173.814 34.8278 174.006 34.4712 174.257 34.1726C174.508 33.8741 174.814 33.6419 175.174 33.4761C175.541 33.3102 175.96 33.2273 176.429 33.2273C176.855 33.2273 177.223 33.2895 177.533 33.4139C177.851 33.53 178.081 33.6419 178.223 33.7497V30.2917L179.038 30.1424V39.596ZM178.223 34.5334C178.147 34.4753 178.051 34.4131 177.934 34.3468C177.825 34.2805 177.696 34.2183 177.545 34.1602C177.394 34.1022 177.231 34.0566 177.056 34.0234C176.88 33.9819 176.696 33.9612 176.504 33.9612C176.102 33.9612 175.763 34.0317 175.487 34.1726C175.219 34.3136 175.002 34.5044 174.835 34.7448C174.667 34.977 174.546 35.2548 174.47 35.5782C174.396 35.8934 174.358 36.2292 174.358 36.5858C174.358 37.4316 174.571 38.0826 174.998 38.5387C175.425 38.9865 175.989 39.2104 176.692 39.2104C177.093 39.2104 177.415 39.1938 177.658 39.1606C177.909 39.1192 178.097 39.0777 178.223 39.0363V34.5334ZM182.013 39.795H181.197V33.3641H182.013V39.795ZM182.201 31.4237C182.201 31.6144 182.142 31.7678 182.025 31.8839C181.908 31.9917 181.766 32.0456 181.599 32.0456C181.431 32.0456 181.288 31.9917 181.172 31.8839C181.055 31.7678 180.996 31.6144 180.996 31.4237C180.996 31.2329 181.055 31.0837 181.172 30.9759C181.288 30.8598 181.431 30.8017 181.599 30.8017C181.766 30.8017 181.908 30.8598 182.025 30.9759C182.142 31.0837 182.201 31.2329 182.201 31.4237ZM186.22 39.2104C186.538 39.2104 186.814 39.2021 187.049 39.1855C187.291 39.1606 187.496 39.1316 187.663 39.0984V36.8346C187.571 36.7931 187.425 36.7517 187.224 36.7102C187.023 36.6604 186.747 36.6356 186.396 36.6356C186.195 36.6356 185.985 36.6521 185.768 36.6853C185.551 36.7102 185.35 36.7724 185.166 36.8719C184.981 36.9631 184.832 37.0916 184.714 37.2575C184.597 37.4234 184.539 37.6431 184.539 37.9168C184.539 38.1572 184.576 38.3604 184.651 38.5263C184.735 38.6921 184.848 38.8248 184.99 38.9243C185.141 39.0238 185.316 39.0985 185.517 39.1482C185.727 39.1897 185.961 39.2104 186.22 39.2104ZM186.145 33.2149C186.571 33.2149 186.931 33.2771 187.224 33.4014C187.525 33.5175 187.767 33.6834 187.951 33.899C188.136 34.1063 188.269 34.3551 188.353 34.6453C188.437 34.9356 188.478 35.2507 188.478 35.5907V39.6458C188.395 39.6706 188.274 39.6997 188.115 39.7328C187.956 39.7577 187.772 39.7867 187.563 39.8199C187.353 39.8531 187.119 39.878 186.86 39.8945C186.609 39.9194 186.35 39.9319 186.082 39.9319C185.739 39.9319 185.421 39.8945 185.128 39.8199C184.844 39.7453 184.593 39.6292 184.375 39.4716C184.166 39.3058 183.999 39.0985 183.873 38.8497C183.756 38.5926 183.698 38.2816 183.698 37.9168C183.698 37.5685 183.765 37.2699 183.898 37.0212C184.033 36.7724 184.221 36.5692 184.463 36.4116C184.706 36.2458 184.995 36.1256 185.329 36.0509C185.664 35.9763 186.027 35.939 186.421 35.939C186.538 35.939 186.659 35.9473 186.784 35.9639C186.919 35.9721 187.044 35.9887 187.161 36.0136C187.286 36.0302 187.391 36.0509 187.475 36.0758C187.567 36.0924 187.63 36.109 187.663 36.1256V35.7275C187.663 35.5036 187.646 35.288 187.613 35.0807C187.579 34.8651 187.504 34.6744 187.387 34.5085C187.279 34.3344 187.119 34.1975 186.91 34.098C186.71 33.9902 186.442 33.9363 186.107 33.9363C185.63 33.9363 185.274 33.9695 185.041 34.0358C184.806 34.1022 184.635 34.1561 184.526 34.1975L184.413 33.4885C184.555 33.4222 184.772 33.36 185.065 33.3019C185.367 33.2439 185.727 33.2149 186.145 33.2149ZM190.559 33.588C190.802 33.5217 191.128 33.447 191.538 33.3641C191.948 33.2812 192.45 33.2397 193.044 33.2397C193.537 33.2397 193.947 33.3102 194.273 33.4512C194.608 33.5922 194.871 33.7953 195.064 34.0607C195.264 34.3178 195.407 34.6287 195.491 34.9936C195.574 35.3585 195.616 35.7607 195.616 36.2002V39.795H194.801V36.4614C194.801 36.0053 194.767 35.6197 194.7 35.3046C194.641 34.9895 194.537 34.7324 194.386 34.5334C194.244 34.3344 194.051 34.1934 193.809 34.1105C193.575 34.0192 193.277 33.9736 192.918 33.9736C192.533 33.9736 192.199 33.9944 191.915 34.0358C191.638 34.0773 191.458 34.1146 191.374 34.1478V39.795H190.559V33.588Z" fill="black"/>
<path d="M150.551 8.43867C151.633 8.43867 152.511 7.58783 152.511 6.53828C152.511 5.48872 151.633 4.63789 150.551 4.63789C149.468 4.63789 148.59 5.48872 148.59 6.53828C148.59 7.58783 149.468 8.43867 150.551 8.43867Z" fill="black"/>
<path d="M40.9541 11.4888L34.1253 22.9821L20.4752 22.9864L27.3041 11.493L40.9541 11.4888Z" fill="black"/>
<path d="M20.4824 0.00406647L27.3037 11.4931L20.4752 22.9862L13.6539 11.4972L20.4824 0.00406647Z" fill="#A8A8A8"/>
<path d="M20.4817 0.00420922L27.3031 11.4933L40.953 11.4891L34.1317 0L20.4817 0.00420922Z" fill="#F0F0F0"/>
<path d="M34.1207 45.9995L27.2996 34.5019L34.1207 23.0044L40.942 34.5019L34.1207 45.9995Z" fill="#A8A8A8"/>
<path d="M54.5852 34.5016L40.9427 34.5017L34.1215 23.0045L47.7639 23.0044L54.5852 34.5016Z" fill="#F0F0F0"/>
<path d="M54.5852 34.5016H40.9427L34.1215 45.9992H47.764L54.5852 34.5016Z" fill="black"/>
<path d="M0 34.5111L6.82885 23.0178L20.4789 23.0135L13.65 34.5069L0 34.5111Z" fill="#F0F0F0"/>
<path d="M20.4713 45.9959L13.65 34.5068L20.4785 23.0137L27.2997 34.5027L20.4713 45.9959Z" fill="#A8A8A8"/>
<path d="M20.4717 45.9958L13.6504 34.5067L0.000488281 34.5109L6.82167 46L20.4717 45.9958Z" fill="black"/>
</svg>
